<svg width="233" height="86" viewBox="0 0 233 86" fill="none" xmlns="http://www.w3.org/2000/svg">
<path d="M8 2.99992C5.86667 5.13325 5.33333 7.39992 5.33333 14.3333C5.33333 22.0666 5.06667 22.9999 2.66667 22.9999C0.933333 22.9999 0 23.9333 0 25.6666C0 27.3999 0.933333 28.3333 2.66667 28.3333C5.06667 28.3333 5.33333 29.2666 5.33333 38.3333V48.3333H9.46667C13.4667 48.3333 13.6 48.3333 13.3333 41.2666C12.8 29.1333 13.0667 28.3333 16.5333 28.3333C18.8 28.3333 20.1333 29.5333 21.3333 32.3333C23.2 36.9999 28.6667 40.3333 34.2667 40.3333C38.4 40.3333 46.6667 35.7999 46.6667 33.6666C46.6667 31.3999 42.5333 30.4666 39.8667 32.0666C34.9333 35.2666 28 33.2666 28 28.7333C28 27.3999 30.6667 26.9999 38 26.9999C48.9333 26.9999 49.8667 26.0666 46.5333 18.5999C42 8.73325 23.8667 10.0666 20.5333 20.5999C20.1333 22.1999 18.5333 22.9999 16.1333 22.9999C12.5333 22.9999 12.4 22.8666 13.0667 15.9333C13.3333 12.1999 14.4 8.33325 15.4667 7.53325C16.5333 6.73325 17.3333 4.73325 17.3333 3.13325C17.3333 -0.600082 11.7333 -0.733418 8 2.99992ZM39.3333 20.3333C41.7333 22.8666 41.6 22.9999 38.5333 23.1333C36.8 23.1333 33.7333 23.3999 31.7333 23.5333C27.8667 23.7999 26.9333 21.9333 29.6 19.2666C32 16.8666 36.6667 17.3999 39.3333 20.3333Z" fill="white"/>
<path d="M104 7.53325V14.7333L99.9999 12.7332C96.7999 11.1333 95.0666 11.1333 91.3333 12.3333C85.1999 14.3333 82.3999 18.7332 82.2666 26.4666C82.2666 31.9333 82.7999 33.2666 86.6666 36.7333C90.5333 40.1999 91.7333 40.4666 96.5333 39.7999C99.5999 39.2666 104.267 38.8666 107.067 38.9999L112 39.1333V19.6666V0.333248H108C104 0.333248 104 0.466583 104 7.53325ZM101.867 20.1999C105.333 24.0666 104.267 31.1333 99.7333 33.5333C96.3999 35.5333 95.8666 35.3999 92.7999 32.4666C88.6666 28.5999 88.3999 23.9333 91.9999 20.3333C95.3333 16.9999 98.9333 16.9999 101.867 20.1999Z" fill="white"/>
<path d="M118.667 19.6666V39L123.733 38.8666C126.4 38.8666 130.267 39.1333 132.4 39.6666C140.267 41.6666 148 34.6 148 25.4C148 16.1999 137.067 8.86662 129.333 12.7333L125.333 14.7333V7.53328C125.333 0.733284 125.2 0.333282 122 0.333282H118.667V19.6666ZM137.867 20.6C139.067 22.2 140 25 140 26.6C140 30.0666 135.733 35 132.667 35C129.6 35 125.333 30.0666 125.333 26.6C125.333 22.2 129.067 17.6666 132.667 17.6666C134.4 17.6666 136.8 19 137.867 20.6Z" fill="white"/>
<path d="M225.067 11.9333L224.667 23.6667L220.667 18.0667C217.333 13.4 215.867 12.3333 212.267 12.3333H207.733L212.533 18.7333L217.2 25.1333L213.333 31.1333C208.4 38.4667 208.4 39 213.2 39C216.267 39 217.733 37.8 220.8 32.8667L224.667 26.7333L225.067 32.8667C225.467 38.3333 225.867 39 228.8 39H232V19.6667V0.333332H228.667C225.467 0.333332 225.467 0.599998 225.067 11.9333Z" fill="white"/>
<path d="M59.0667 13C50.4 16.7333 48.1334 28.0666 54.5334 35.2666C58 39.1333 59.2 39.6666 65.2 39.6666C70.8 39.6666 72.5334 39 75.4667 36.0666L79.0667 32.4666L75.4667 31.5333C73.3334 31 71.2 31.2666 70.2667 32.2C66.9334 35.5333 58.6667 33.1333 58.6667 28.7333C58.6667 27.4 61.4667 27 69.3334 27C75.7334 27 80 26.4666 80 25.6666C80 21.1333 75.7334 14.7333 71.4667 13C65.7334 10.6 64.5334 10.6 59.0667 13ZM70.1334 19.9333C72.4 22.2 72.2667 22.3333 66.1334 22.7333C58.8 23.2666 57.6 22.6 60 19.6666C62.2667 17 67.2 17.1333 70.1334 19.9333Z" fill="white"/>
<path d="M157.733 12.9999C153.2 14.9999 151.067 17.7999 150.667 22.9999C150 30.0666 150.8 32.7333 154.667 36.5999C158.267 40.0666 159.333 40.4666 163.733 39.7999C166.4 39.2666 171.2 38.9999 174.4 38.9999L180 39.1333V25.6666V12.3333H176C173.867 12.3333 172 12.8666 172 13.5333C172 14.3333 170.4 13.9333 168.4 12.8666C163.867 10.5999 163.2 10.5999 157.733 12.9999ZM168.8 18.7333C174 22.1999 173.6 30.7333 168 33.6666C163.6 36.0666 157.333 31.1333 157.333 25.1333C157.333 20.3333 164.933 16.0666 168.8 18.7333Z" fill="white"/>
<path d="M191.067 13C181.6 17 180.133 30.2 188.267 37C191.867 40.0667 193.467 40.4667 198.4 39.9333C205.333 39.1333 207.867 37.2667 205.467 34.4667C204.4 33.1333 202.4 32.7333 199.467 33.2667C191.467 34.4667 187.333 25.1333 193.467 19.6667C195.733 17.5333 196.8 17.4 200 18.6C203.2 19.8 204.267 19.6667 205.867 17.8C207.733 15.8 207.6 15.4 205.6 14.0667C201.333 11.5333 195.467 11 191.067 13Z" fill="white"/>
<path d="M111.067 47.2666C103.6 50.8666 102.267 64.0666 108.667 70.4666C112.133 73.9332 119.467 74.7332 124.133 72.3332C125.867 71.3999 126.667 71.3999 126.667 72.3332C126.667 72.9999 128.533 73.6666 130.667 73.6666H134.8L134.4 59.9332L134 46.3332L130.4 45.9332C128.267 45.6666 126.667 46.1999 126.667 46.9999C126.667 47.9332 125.867 48.0666 124.133 46.9999C120.8 45.2666 114.933 45.3999 111.067 47.2666ZM123.733 53.1332C129.2 56.9999 126.267 68.3332 119.733 68.3332C116.267 68.3332 112 63.5332 112 59.6666C112 56.1999 116.133 50.9999 119.067 50.9999C120 50.9999 122.133 51.9332 123.733 53.1332Z" fill="white"/>
<path d="M141.6 47.8C137.6 50.6 137.6 56.8666 141.733 59.6666C143.333 60.7333 146.933 62.0666 149.6 62.4666C155.067 63.4 158.933 66.6 155.867 67.5333C150.4 69.2666 147.733 69.2666 146.133 67.5333C143.733 65.1333 138.667 65.1333 138.667 67.4C138.667 71.4 143.467 73.6666 151.6 73.6666C160.533 73.6666 164 71.4 164 65.4C164 60.8666 161.333 58.8666 152.933 57C148.4 55.9333 145.867 54.7333 145.6 53.2666C145.2 51.4 146.267 51 150.533 51C153.467 51 156.267 51.5333 156.667 52.3333C157.733 54.0666 164 54.0666 164 52.4666C164 51.8 162.4 49.9333 160.533 48.4666C156.133 45 146 44.7333 141.6 47.8Z" fill="white"/>
<path d="M171.333 48.8666C162.133 58.0666 167.467 73.6666 179.867 73.6666C182.667 73.6666 185.6 72.8666 186.533 71.9333C188 70.6 188.4 70.6 188.933 71.9333C189.333 72.8666 191.067 73.6666 192.8 73.6666C196 73.6666 196 73.5333 196 59.6666C196 45.8 196 45.6666 192.8 45.6666C191.067 45.6666 189.333 46.4666 188.933 47.2666C188.4 48.6 188 48.6 186.533 47.2666C183.467 44.4666 174.933 45.2666 171.333 48.8666ZM186.667 53.6666C188.133 55.1333 189.333 57.8 189.333 59.6666C189.333 63.5333 185.067 68.3333 181.733 68.3333C178.267 68.3333 174.667 64.2 174.667 60.0666C174.667 56.0666 178.667 51 182 51C183.067 51 185.2 52.2 186.667 53.6666Z" fill="white"/>
<path d="M202.667 65.6666V85.6666H206.667C210.667 85.6666 210.667 85.6666 210.667 78.0666C210.667 72.2 211.067 70.8666 212.267 72.0666C214.267 74.0666 223.2 74.2 226.933 72.2C232.667 69.1333 234.667 56.8666 230.267 50.8666C226.667 46.0666 218.533 44.2 213.333 47C211.6 47.9333 210.533 47.9333 210 47C209.6 46.3333 207.733 45.6666 205.867 45.6666H202.667V65.6666ZM222.667 53.6666C224.133 55.1333 225.333 57.8 225.333 59.6666C225.333 63.6666 221.067 68.3333 217.467 68.3333C210.8 68.3333 208 57 213.6 53.1333C217.6 50.3333 219.467 50.4666 222.667 53.6666Z" fill="white"/>
</svg>
