<svg width="234" height="87" viewBox="0 0 234 87" fill="none" xmlns="http://www.w3.org/2000/svg">
<g clip-path="url(#clip0_55497_43935)">
<path d="M7.90862 4.38802C5.79966 6.51134 5.27242 8.76736 5.27242 15.6681C5.27242 23.3652 5.0088 24.2941 2.63621 24.2941C0.922673 24.2941 0 25.2231 0 26.9483C0 28.6735 0.922673 29.6024 2.63621 29.6024C5.0088 29.6024 5.27242 30.5314 5.27242 39.5555V49.5085H9.35854C13.3129 49.5085 13.4447 49.5085 13.181 42.4751C12.6538 30.3987 12.9174 29.6024 16.3445 29.6024C18.5853 29.6024 19.9034 30.7968 21.0897 33.5837C22.935 38.2284 28.3392 41.5461 33.8753 41.5461C37.9614 41.5461 46.1336 37.034 46.1336 34.9107C46.1336 32.6547 42.0475 31.7257 39.4113 33.3182C34.5343 36.5032 27.6802 34.5126 27.6802 30.0006C27.6802 28.6735 30.3164 28.2754 37.566 28.2754C48.3744 28.2754 49.2971 27.3464 46.0018 19.9148C41.5203 10.0944 23.5941 11.4215 20.2988 21.9054C19.9034 23.4979 18.3216 24.2941 15.9491 24.2941C12.3902 24.2941 12.2584 24.1614 12.9174 17.2606C13.181 13.5448 14.2355 9.69632 15.29 8.90007C16.3445 8.10383 17.1354 6.11321 17.1354 4.52073C17.1354 0.804917 11.5993 0.67221 7.90862 4.38802ZM38.8841 21.64C41.2567 24.1614 41.1248 24.2941 38.0932 24.4268C36.3797 24.4268 33.348 24.6923 31.3709 24.825C27.5484 25.0904 26.6257 23.2325 29.2619 20.5783C31.6345 18.1896 36.2479 18.7204 38.8841 21.64Z" fill="#1B7CC1"/>
<path d="M102.812 8.90008V16.0663L98.8577 14.0757C95.6942 12.4832 93.9807 12.4832 90.29 13.6775C84.2267 15.6682 81.4587 20.0475 81.3269 27.7445C81.3269 33.1855 81.8541 34.5126 85.6766 37.963C89.4992 41.4134 90.6854 41.6788 95.4306 41.0153C98.4623 40.4844 103.076 40.0863 105.844 40.219L110.721 40.3517V20.9765V1.73388H106.766C102.812 1.73388 102.812 1.86658 102.812 8.90008ZM100.703 21.5073C104.13 25.3558 103.076 32.3893 98.5941 34.778C95.2988 36.7686 94.7716 36.6359 91.7399 33.7164C87.6538 29.8679 87.3902 25.2231 90.9491 21.64C94.2443 18.3223 97.8032 18.3223 100.703 21.5073Z" fill="#1B7CC1"/>
<path d="M117.311 20.9765V40.219L122.32 40.0863C124.956 40.0863 128.779 40.3517 130.888 40.8826C138.665 42.8732 146.31 35.8397 146.31 26.6829C146.31 17.5261 135.501 10.2272 127.856 14.0757L123.902 16.0663V8.90008C123.902 2.132 123.77 1.73388 120.607 1.73388H117.311V20.9765ZM136.292 21.9054C137.478 23.4979 138.401 26.2848 138.401 27.8772C138.401 31.3276 134.183 36.2378 131.151 36.2378C128.12 36.2378 123.902 31.3276 123.902 27.8772C123.902 23.4979 127.592 18.9858 131.151 18.9858C132.865 18.9858 135.237 20.3129 136.292 21.9054Z" fill="#1B7CC1"/>
<path d="M222.496 13.2795L222.101 24.9578L218.146 19.384C214.851 14.7393 213.401 13.6776 209.842 13.6776H205.361L210.106 20.0476L214.719 26.4175L210.897 32.3894C206.02 39.6883 206.02 40.2191 210.765 40.2191C213.796 40.2191 215.246 39.0247 218.278 34.1146L222.101 28.01L222.496 34.1146C222.891 39.5556 223.287 40.2191 226.187 40.2191H229.35V20.9765V1.73396H226.055C222.891 1.73396 222.891 1.99938 222.496 13.2795Z" fill="#1B7CC1"/>
<path d="M58.392 14.3411C49.8243 18.0569 47.5835 29.337 53.9104 36.5032C57.3375 40.3517 58.5238 40.8826 64.4552 40.8826C69.9913 40.8826 71.7048 40.219 74.6046 37.2995L78.1635 33.7164L74.6046 32.7874C72.4957 32.2566 70.3867 32.522 69.464 33.451C66.1688 36.7686 57.9965 34.3799 57.9965 30.0006C57.9965 28.6735 60.7646 28.2754 68.5414 28.2754C74.8683 28.2754 79.0862 27.7445 79.0862 26.9483C79.0862 22.4362 74.8683 16.0663 70.6503 14.3411C64.9825 11.9523 63.7962 11.9523 58.392 14.3411ZM69.3322 21.2419C71.573 23.4979 71.4412 23.6306 65.3779 24.0287C58.1283 24.5596 56.942 23.896 59.3146 20.9765C61.5554 18.3223 66.4324 18.455 69.3322 21.2419Z" fill="#1B7CC1"/>
<path d="M155.932 14.341C151.45 16.3316 149.341 19.1185 148.946 24.2941C148.287 31.3276 149.078 33.9817 152.9 37.8302C156.459 41.2806 157.513 41.6787 161.863 41.0152C164.499 40.4844 169.245 40.2189 172.408 40.2189L177.944 40.3517V26.9482V13.6775H173.99C171.881 13.6775 170.035 14.2083 170.035 14.8718C170.035 15.6681 168.454 15.2699 166.476 14.2083C161.995 11.9523 161.336 11.9523 155.932 14.341ZM166.872 20.0474C172.013 23.4978 171.617 31.9911 166.081 34.9107C161.731 37.2994 155.536 32.3892 155.536 26.4174C155.536 21.6399 163.049 17.3933 166.872 20.0474Z" fill="#1B7CC1"/>
<path d="M188.884 14.3411C179.526 18.3223 178.076 31.4604 186.116 38.2284C189.675 41.2807 191.257 41.6788 196.134 41.148C202.988 40.3518 205.492 38.4939 203.12 35.707C202.065 34.3799 200.088 33.9818 197.188 34.5126C189.28 35.707 185.194 26.4175 191.257 20.9765C193.498 18.8532 194.552 18.7204 197.716 19.9148C200.879 21.1092 201.933 20.9765 203.515 19.1186C205.361 17.128 205.229 16.7298 203.252 15.4028C199.034 12.8813 193.234 12.3505 188.884 14.3411Z" fill="#1B7CC1"/>
<path d="M109.798 48.4469C102.417 52.03 101.099 65.168 107.426 71.538C110.853 74.9884 118.102 75.7846 122.716 73.3959C124.429 72.4669 125.22 72.4669 125.22 73.3959C125.22 74.0594 127.065 74.7229 129.174 74.7229H133.26L132.865 61.0541L132.47 47.5179L128.911 47.1198C126.802 46.8544 125.22 47.3852 125.22 48.1815C125.22 49.1104 124.429 49.2431 122.716 48.1815C119.42 46.4563 113.621 46.589 109.798 48.4469ZM122.32 54.286C127.724 58.1345 124.825 69.4146 118.366 69.4146C114.939 69.4146 110.721 64.6372 110.721 60.7887C110.721 57.3383 114.807 52.1627 117.707 52.1627C118.63 52.1627 120.739 53.0916 122.32 54.286Z" fill="#1B7CC1"/>
<path d="M139.983 48.9777C136.028 51.7645 136.028 58.0018 140.114 60.7886C141.696 61.8503 145.255 63.1774 147.891 63.5755C153.296 64.5044 157.118 67.6894 154.086 68.6184C148.682 70.3436 146.046 70.3436 144.464 68.6184C142.092 66.2296 137.083 66.2296 137.083 68.4857C137.083 72.4669 141.828 74.7229 149.868 74.7229C158.7 74.7229 162.127 72.4669 162.127 66.495C162.127 61.983 159.491 59.9924 151.187 58.1345C146.705 57.0728 144.201 55.8784 143.937 54.4187C143.542 52.5608 144.596 52.1626 148.814 52.1626C151.714 52.1626 154.482 52.6935 154.877 53.4897C155.932 55.2149 162.127 55.2149 162.127 53.6224C162.127 52.9589 160.545 51.101 158.7 49.6412C154.35 46.1908 144.332 45.9254 139.983 48.9777Z" fill="#1B7CC1"/>
<path d="M169.376 50.0393C160.281 59.1961 165.554 74.7229 177.812 74.7229C180.58 74.7229 183.48 73.9267 184.403 72.9977C185.853 71.6706 186.248 71.6706 186.775 72.9977C187.171 73.9267 188.884 74.7229 190.598 74.7229C193.761 74.7229 193.761 74.5902 193.761 60.7886C193.761 46.987 193.761 46.8543 190.598 46.8543C188.884 46.8543 187.171 47.6506 186.775 48.4468C186.248 49.7739 185.853 49.7739 184.403 48.4468C181.371 45.66 172.935 46.4562 169.376 50.0393ZM184.535 54.8168C185.985 56.2766 187.171 58.9307 187.171 60.7886C187.171 64.6371 182.953 69.4146 179.658 69.4146C176.231 69.4146 172.672 65.3007 172.672 61.1867C172.672 57.2055 176.626 52.1626 179.921 52.1626C180.976 52.1626 183.085 53.357 184.535 54.8168Z" fill="#1B7CC1"/>
<path d="M200.352 66.7605V86.6666H204.306C208.26 86.6666 208.26 86.6666 208.26 79.1023C208.26 73.2632 208.656 71.9361 209.842 73.1305C211.819 75.1211 220.651 75.2538 224.341 73.2632C230.009 70.2109 231.986 58.0018 227.637 52.03C224.078 47.2525 216.037 45.3946 210.897 48.1815C209.183 49.1104 208.129 49.1104 207.601 48.1815C207.206 47.5179 205.361 46.8544 203.515 46.8544H200.352V66.7605ZM220.123 54.8168C221.573 56.2766 222.76 58.9308 222.76 60.7887C222.76 64.7699 218.542 69.4147 214.983 69.4147C208.392 69.4147 205.624 58.1345 211.16 54.286C215.115 51.4992 216.96 51.6319 220.123 54.8168Z" fill="#1B7CC1"/>
</g>
<defs>
<clipPath id="clip0_55497_43935">
<rect width="233.333" height="86.6667" fill="white"/>
</clipPath>
</defs>
</svg>
